<mxfile host="app.diagrams.net" agent="Mozilla/5.0 (Windows NT 10.0; Win64; x64) AppleWebKit/537.36 (KHTML, like Gecko) Chrome/132.0.0.0 Safari/537.36 Edg/132.0.0.0" version="26.0.11">
  <diagram name="Page-1" id="929967ad-93f9-6ef4-fab6-5d389245f69c">
    <mxGraphModel dx="926" dy="732" grid="1" gridSize="10" guides="1" tooltips="1" connect="1" arrows="1" fold="1" page="1" pageScale="1.5" pageWidth="1169" pageHeight="826" background="none" math="0" shadow="0">
      <root>
        <mxCell id="0" style=";html=1;" />
        <mxCell id="1" style=";html=1;" parent="0" />
        <mxCell id="1672d66443f91eb5-23" value="Title" style="text;strokeColor=none;fillColor=none;html=1;fontSize=24;fontStyle=1;verticalAlign=middle;align=center;" parent="1" vertex="1">
          <mxGeometry x="120" y="40" width="1510" height="40" as="geometry" />
        </mxCell>
        <mxCell id="m1ICpZcG_eLLLOLmuXQz-1" value="&lt;p style=&quot;margin: 0px ; margin-top: 4px ; margin-left: 10px ; text-align: left&quot;&gt;&lt;b&gt;USC&lt;/b&gt; [UseCase] Déplacer le pénétromètre&lt;/p&gt;" style="html=1;strokeWidth=1;shape=mxgraph.sysml.package;html=1;overflow=fill;whiteSpace=wrap;fillColor=none;gradientColor=none;fontSize=12;align=center;labelX=242.31;" vertex="1" parent="1">
          <mxGeometry x="581.5" y="405" width="638.5" height="455" as="geometry" />
        </mxCell>
        <mxCell id="m1ICpZcG_eLLLOLmuXQz-2" value="Coordonnées géographiques" style="shape=ellipse;html=1;strokeWidth=3;fontStyle=1;whiteSpace=wrap;align=center;perimeter=ellipsePerimeter;" vertex="1" parent="1">
          <mxGeometry x="931.5" y="410" width="140" height="45" as="geometry" />
        </mxCell>
        <mxCell id="m1ICpZcG_eLLLOLmuXQz-3" value="trajectoire à parcourir" style="shape=ellipse;html=1;strokeWidth=3;fontStyle=1;whiteSpace=wrap;align=center;perimeter=ellipsePerimeter;" vertex="1" parent="1">
          <mxGeometry x="931.5" y="470" width="140" height="50" as="geometry" />
        </mxCell>
        <mxCell id="m1ICpZcG_eLLLOLmuXQz-9" value="" style="edgeStyle=none;html=1;endArrow=none;verticalAlign=bottom;rounded=0;entryX=0;entryY=0.5;entryDx=0;entryDy=0;" edge="1" parent="1" source="m1ICpZcG_eLLLOLmuXQz-19" target="m1ICpZcG_eLLLOLmuXQz-17">
          <mxGeometry width="160" relative="1" as="geometry">
            <mxPoint x="1141.5" y="560" as="sourcePoint" />
            <mxPoint x="1138.5" y="535" as="targetPoint" />
          </mxGeometry>
        </mxCell>
        <mxCell id="m1ICpZcG_eLLLOLmuXQz-10" style="edgeStyle=orthogonalEdgeStyle;rounded=0;orthogonalLoop=1;jettySize=auto;html=1;exitX=0.5;exitY=1;exitDx=0;exitDy=0;" edge="1" parent="1">
          <mxGeometry relative="1" as="geometry">
            <mxPoint x="751.5" y="515" as="sourcePoint" />
            <mxPoint x="751.5" y="515" as="targetPoint" />
          </mxGeometry>
        </mxCell>
        <mxCell id="m1ICpZcG_eLLLOLmuXQz-16" value="Se déplacer en suivant une trajectoire" style="shape=ellipse;html=1;strokeWidth=3;fontStyle=1;whiteSpace=wrap;align=center;perimeter=ellipsePerimeter;" vertex="1" parent="1">
          <mxGeometry x="605" y="570" width="130" height="60" as="geometry" />
        </mxCell>
        <mxCell id="m1ICpZcG_eLLLOLmuXQz-17" value="Recevoir des données" style="shape=ellipse;html=1;strokeWidth=3;fontStyle=1;whiteSpace=wrap;align=center;perimeter=ellipsePerimeter;" vertex="1" parent="1">
          <mxGeometry x="610" y="440" width="120" height="45" as="geometry" />
        </mxCell>
        <mxCell id="m1ICpZcG_eLLLOLmuXQz-18" value="Transmettre les données" style="shape=ellipse;html=1;strokeWidth=3;fontStyle=1;whiteSpace=wrap;align=center;perimeter=ellipsePerimeter;" vertex="1" parent="1">
          <mxGeometry x="600" y="750" width="140" height="40" as="geometry" />
        </mxCell>
        <mxCell id="m1ICpZcG_eLLLOLmuXQz-19" value="Station" style="shape=umlActor;html=1;verticalLabelPosition=bottom;verticalAlign=top;align=center;" vertex="1" parent="1">
          <mxGeometry x="450" y="589" width="30" height="60" as="geometry" />
        </mxCell>
        <mxCell id="m1ICpZcG_eLLLOLmuXQz-20" value="" style="edgeStyle=none;html=1;endArrow=none;verticalAlign=bottom;rounded=0;entryX=0;entryY=0.5;entryDx=0;entryDy=0;" edge="1" parent="1" source="m1ICpZcG_eLLLOLmuXQz-19" target="m1ICpZcG_eLLLOLmuXQz-18">
          <mxGeometry width="160" relative="1" as="geometry">
            <mxPoint x="976.5" y="1015" as="sourcePoint" />
            <mxPoint x="1136.5" y="1015" as="targetPoint" />
          </mxGeometry>
        </mxCell>
        <mxCell id="m1ICpZcG_eLLLOLmuXQz-22" value="&amp;lt;&amp;lt;include&amp;gt;&amp;gt;" style="edgeStyle=none;html=1;startArrow=open;endArrow=none;startSize=12;verticalAlign=bottom;dashed=1;labelBackgroundColor=none;rounded=0;exitX=0.5;exitY=0;exitDx=0;exitDy=0;entryX=0.5;entryY=1;entryDx=0;entryDy=0;" edge="1" parent="1" source="m1ICpZcG_eLLLOLmuXQz-16" target="m1ICpZcG_eLLLOLmuXQz-17">
          <mxGeometry width="160" relative="1" as="geometry">
            <mxPoint x="881.5" y="755" as="sourcePoint" />
            <mxPoint x="1041.5" y="755" as="targetPoint" />
          </mxGeometry>
        </mxCell>
        <mxCell id="m1ICpZcG_eLLLOLmuXQz-28" value="" style="edgeStyle=none;curved=1;rounded=0;orthogonalLoop=1;jettySize=auto;html=1;fontSize=12;startSize=8;endSize=8;exitX=0;exitY=0.5;exitDx=0;exitDy=0;entryX=1;entryY=0.5;entryDx=0;entryDy=0;" edge="1" parent="1" source="m1ICpZcG_eLLLOLmuXQz-2" target="m1ICpZcG_eLLLOLmuXQz-17">
          <mxGeometry relative="1" as="geometry">
            <mxPoint x="444" y="611" as="sourcePoint" />
            <mxPoint x="444" y="506" as="targetPoint" />
            <Array as="points">
              <mxPoint x="830" y="463" />
            </Array>
          </mxGeometry>
        </mxCell>
        <mxCell id="m1ICpZcG_eLLLOLmuXQz-29" value="" style="edgeStyle=none;curved=1;rounded=0;orthogonalLoop=1;jettySize=auto;html=1;fontSize=12;startSize=8;endSize=8;exitX=0;exitY=0.5;exitDx=0;exitDy=0;entryX=1;entryY=0.5;entryDx=0;entryDy=0;" edge="1" parent="1" source="m1ICpZcG_eLLLOLmuXQz-3" target="m1ICpZcG_eLLLOLmuXQz-17">
          <mxGeometry relative="1" as="geometry">
            <mxPoint x="942" y="443" as="sourcePoint" />
            <mxPoint x="740" y="473" as="targetPoint" />
            <Array as="points">
              <mxPoint x="830" y="460" />
            </Array>
          </mxGeometry>
        </mxCell>
        <mxCell id="m1ICpZcG_eLLLOLmuXQz-30" value="Se géoolocaliser" style="shape=ellipse;html=1;strokeWidth=3;fontStyle=1;whiteSpace=wrap;align=center;perimeter=ellipsePerimeter;" vertex="1" parent="1">
          <mxGeometry x="820" y="530" width="140" height="40" as="geometry" />
        </mxCell>
        <mxCell id="m1ICpZcG_eLLLOLmuXQz-31" value="Eviter les obstacles" style="shape=ellipse;html=1;strokeWidth=3;fontStyle=1;whiteSpace=wrap;align=center;perimeter=ellipsePerimeter;" vertex="1" parent="1">
          <mxGeometry x="820" y="580" width="140" height="40" as="geometry" />
        </mxCell>
        <mxCell id="m1ICpZcG_eLLLOLmuXQz-32" value="S&#39;orienter" style="shape=ellipse;html=1;strokeWidth=3;fontStyle=1;whiteSpace=wrap;align=center;perimeter=ellipsePerimeter;" vertex="1" parent="1">
          <mxGeometry x="820" y="630" width="140" height="40" as="geometry" />
        </mxCell>
        <mxCell id="m1ICpZcG_eLLLOLmuXQz-33" value="Valeur de pénétrométrie" style="shape=ellipse;html=1;strokeWidth=3;fontStyle=1;whiteSpace=wrap;align=center;perimeter=ellipsePerimeter;" vertex="1" parent="1">
          <mxGeometry x="830" y="700" width="140" height="40" as="geometry" />
        </mxCell>
        <mxCell id="m1ICpZcG_eLLLOLmuXQz-34" value="Journal de bord" style="shape=ellipse;html=1;strokeWidth=3;fontStyle=1;whiteSpace=wrap;align=center;perimeter=ellipsePerimeter;" vertex="1" parent="1">
          <mxGeometry x="830" y="750" width="140" height="40" as="geometry" />
        </mxCell>
        <mxCell id="m1ICpZcG_eLLLOLmuXQz-35" value="Coordonnées géographiques" style="shape=ellipse;html=1;strokeWidth=3;fontStyle=1;whiteSpace=wrap;align=center;perimeter=ellipsePerimeter;" vertex="1" parent="1">
          <mxGeometry x="830.75" y="800" width="140" height="40" as="geometry" />
        </mxCell>
        <mxCell id="m1ICpZcG_eLLLOLmuXQz-36" value="Mesurer la Valeur de pénétrométrie" style="shape=ellipse;html=1;strokeWidth=3;fontStyle=1;whiteSpace=wrap;align=center;perimeter=ellipsePerimeter;" vertex="1" parent="1">
          <mxGeometry x="1040" y="695" width="140" height="50" as="geometry" />
        </mxCell>
        <mxCell id="m1ICpZcG_eLLLOLmuXQz-37" value="" style="edgeStyle=none;curved=1;rounded=0;orthogonalLoop=1;jettySize=auto;html=1;fontSize=12;startSize=8;endSize=8;exitX=0;exitY=0.5;exitDx=0;exitDy=0;entryX=0.5;entryY=0;entryDx=0;entryDy=0;" edge="1" parent="1" source="m1ICpZcG_eLLLOLmuXQz-33" target="m1ICpZcG_eLLLOLmuXQz-18">
          <mxGeometry relative="1" as="geometry">
            <mxPoint x="942" y="505" as="sourcePoint" />
            <mxPoint x="740" y="473" as="targetPoint" />
            <Array as="points">
              <mxPoint x="670" y="710" />
            </Array>
          </mxGeometry>
        </mxCell>
        <mxCell id="m1ICpZcG_eLLLOLmuXQz-38" value="" style="edgeStyle=none;curved=1;rounded=0;orthogonalLoop=1;jettySize=auto;html=1;fontSize=12;startSize=8;endSize=8;exitX=0;exitY=0.5;exitDx=0;exitDy=0;entryX=1;entryY=0.5;entryDx=0;entryDy=0;" edge="1" parent="1" source="m1ICpZcG_eLLLOLmuXQz-34" target="m1ICpZcG_eLLLOLmuXQz-18">
          <mxGeometry relative="1" as="geometry">
            <mxPoint x="952" y="515" as="sourcePoint" />
            <mxPoint x="750" y="483" as="targetPoint" />
          </mxGeometry>
        </mxCell>
        <mxCell id="m1ICpZcG_eLLLOLmuXQz-39" value="" style="edgeStyle=none;curved=1;rounded=0;orthogonalLoop=1;jettySize=auto;html=1;fontSize=12;startSize=8;endSize=8;entryX=0.5;entryY=1;entryDx=0;entryDy=0;exitX=0;exitY=0.5;exitDx=0;exitDy=0;" edge="1" parent="1" source="m1ICpZcG_eLLLOLmuXQz-35" target="m1ICpZcG_eLLLOLmuXQz-18">
          <mxGeometry relative="1" as="geometry">
            <mxPoint x="962" y="525" as="sourcePoint" />
            <mxPoint x="760" y="493" as="targetPoint" />
            <Array as="points">
              <mxPoint x="670" y="830" />
            </Array>
          </mxGeometry>
        </mxCell>
        <mxCell id="m1ICpZcG_eLLLOLmuXQz-41" value="&amp;lt;&amp;lt;include&amp;gt;&amp;gt;" style="edgeStyle=none;html=1;startArrow=open;endArrow=none;startSize=12;verticalAlign=bottom;dashed=1;labelBackgroundColor=none;rounded=0;exitX=0;exitY=0.5;exitDx=0;exitDy=0;entryX=1;entryY=0.5;entryDx=0;entryDy=0;" edge="1" parent="1" source="m1ICpZcG_eLLLOLmuXQz-30" target="m1ICpZcG_eLLLOLmuXQz-16">
          <mxGeometry width="160" relative="1" as="geometry">
            <mxPoint x="680" y="580" as="sourcePoint" />
            <mxPoint x="680" y="495" as="targetPoint" />
          </mxGeometry>
        </mxCell>
        <mxCell id="m1ICpZcG_eLLLOLmuXQz-42" value="&amp;lt;&amp;lt;include&amp;gt;&amp;gt;" style="edgeStyle=none;html=1;startArrow=open;endArrow=none;startSize=12;verticalAlign=bottom;dashed=1;labelBackgroundColor=none;rounded=0;exitX=0;exitY=0.5;exitDx=0;exitDy=0;entryX=1;entryY=0.5;entryDx=0;entryDy=0;" edge="1" parent="1" source="m1ICpZcG_eLLLOLmuXQz-31" target="m1ICpZcG_eLLLOLmuXQz-16">
          <mxGeometry width="160" relative="1" as="geometry">
            <mxPoint x="830" y="560" as="sourcePoint" />
            <mxPoint x="745" y="610" as="targetPoint" />
          </mxGeometry>
        </mxCell>
        <mxCell id="m1ICpZcG_eLLLOLmuXQz-43" value="&amp;lt;&amp;lt;include&amp;gt;&amp;gt;" style="edgeStyle=none;html=1;startArrow=open;endArrow=none;startSize=12;verticalAlign=bottom;dashed=1;labelBackgroundColor=none;rounded=0;exitX=0;exitY=0.5;exitDx=0;exitDy=0;entryX=1;entryY=0.5;entryDx=0;entryDy=0;" edge="1" parent="1" source="m1ICpZcG_eLLLOLmuXQz-32" target="m1ICpZcG_eLLLOLmuXQz-16">
          <mxGeometry width="160" relative="1" as="geometry">
            <mxPoint x="840" y="570" as="sourcePoint" />
            <mxPoint x="755" y="620" as="targetPoint" />
          </mxGeometry>
        </mxCell>
        <mxCell id="m1ICpZcG_eLLLOLmuXQz-44" value="&amp;lt;&amp;lt;include&amp;gt;&amp;gt;" style="edgeStyle=none;html=1;startArrow=open;endArrow=none;startSize=12;verticalAlign=bottom;dashed=1;labelBackgroundColor=none;rounded=0;exitX=0;exitY=0.5;exitDx=0;exitDy=0;entryX=1;entryY=0.5;entryDx=0;entryDy=0;" edge="1" parent="1" source="m1ICpZcG_eLLLOLmuXQz-36" target="m1ICpZcG_eLLLOLmuXQz-33">
          <mxGeometry width="160" relative="1" as="geometry">
            <mxPoint x="850" y="580" as="sourcePoint" />
            <mxPoint x="765" y="630" as="targetPoint" />
          </mxGeometry>
        </mxCell>
        <mxCell id="m1ICpZcG_eLLLOLmuXQz-45" value="Piste" style="shape=umlActor;html=1;verticalLabelPosition=bottom;verticalAlign=top;align=center;" vertex="1" parent="1">
          <mxGeometry x="1300" y="690" width="30" height="60" as="geometry" />
        </mxCell>
        <mxCell id="m1ICpZcG_eLLLOLmuXQz-46" value="" style="edgeStyle=none;html=1;endArrow=none;verticalAlign=bottom;rounded=0;exitX=1;exitY=0.5;exitDx=0;exitDy=0;" edge="1" parent="1" source="m1ICpZcG_eLLLOLmuXQz-36" target="m1ICpZcG_eLLLOLmuXQz-45">
          <mxGeometry width="160" relative="1" as="geometry">
            <mxPoint x="490" y="646" as="sourcePoint" />
            <mxPoint x="610" y="780" as="targetPoint" />
          </mxGeometry>
        </mxCell>
      </root>
    </mxGraphModel>
  </diagram>
</mxfile>
